<svg width="96" height="96" xmlns="http://www.w3.org/2000/svg" xmlns:xlink="http://www.w3.org/1999/xlink" overflow="hidden"><defs><clipPath id="clip0"><rect x="300" y="351" width="96" height="96"/></clipPath></defs><g clip-path="url(#clip0)" transform="translate(-300 -351)"><path d="M352.75 390.05 343.94 390.05C343.112 390.05 342.44 390.722 342.44 391.55 342.44 392.378 343.112 393.05 343.94 393.05L352.75 393.05C353.578 393.05 354.25 392.378 354.25 391.55 354.25 390.722 353.578 390.05 352.75 390.05Z" fill="#FF3399"/><path d="M348.34 398C350.03 397.998 351.429 396.686 351.54 395L345.15 395C345.255 396.685 346.652 397.998 348.34 398Z" fill="#FF3399"/><path d="M348.34 361.44 348.34 361.44C341.356 361.488 335.685 367.097 335.56 374.08L335.56 374.52C335.594 376.054 335.895 377.57 336.45 379 336.967 380.336 337.719 381.569 338.67 382.64 339.856 384.138 340.863 385.769 341.67 387.5 341.838 387.833 342.177 388.045 342.55 388.05L354.15 388.05C354.523 388.045 354.862 387.833 355.03 387.5 355.838 385.769 356.845 384.138 358.03 382.64 358.975 381.566 359.723 380.334 360.24 379 360.78 377.583 361.081 376.086 361.13 374.57L361.13 374.13C361.027 367.126 355.345 361.488 348.34 361.44ZM358.18 374.44C358.139 375.621 357.902 376.786 357.48 377.89 357.086 378.881 356.521 379.795 355.81 380.59 354.686 381.952 353.724 383.438 352.94 385.02L343.75 385.02C342.963 383.438 341.997 381.951 340.87 380.59 340.163 379.794 339.601 378.88 339.21 377.89 338.788 376.786 338.551 375.621 338.51 374.44L338.51 374.08C338.602 368.708 342.967 364.392 348.34 364.36L348.34 364.36C353.715 364.392 358.082 368.706 358.18 374.08Z" fill="#FF3399"/><path d="M343.52 377.33 348.81 367 348.81 372.98 354.3 371.89 348.81 382 348.81 376.13 343.52 377.33Z" fill="#FF3399"/><path d="M376.84 404.53C376.84 408.827 373.357 412.31 369.06 412.31 364.763 412.31 361.28 408.827 361.28 404.53 361.28 400.233 364.763 396.75 369.06 396.75 373.357 396.75 376.84 400.233 376.84 404.53Z" fill="#FF3399"/><path d="M335.34 404.53C335.34 408.827 331.857 412.31 327.56 412.31 323.263 412.31 319.78 408.827 319.78 404.53 319.78 400.233 323.263 396.75 327.56 396.75 331.857 396.75 335.34 400.233 335.34 404.53Z" fill="#FF3399"/><path d="M383.06 419.05C380.819 417.305 378.226 416.066 375.46 415.42 373.379 414.813 371.228 414.477 369.06 414.42 366.887 414.415 364.728 414.753 362.66 415.42 360.589 415.972 358.608 416.821 356.78 417.94 356.66 418.08 356.55 418.22 356.42 418.35 359.328 419.133 362.049 420.493 364.42 422.35 366.291 423.716 367.383 425.904 367.35 428.22L367.35 430 384.62 430 384.62 422.17C384.65 420.935 384.066 419.767 383.06 419.05Z" fill="#FF3399"/><path d="M329.29 428.22C329.292 425.97 330.324 423.844 332.09 422.45L332.21 422.35 332.34 422.26C334.738 420.554 337.391 419.238 340.2 418.36 340 418.15 339.82 417.93 339.63 417.71 337.873 416.681 335.977 415.91 334 415.42 331.919 414.812 329.767 414.476 327.6 414.42 325.427 414.416 323.268 414.753 321.2 415.42 318.473 416.172 315.9 417.401 313.6 419.05 312.615 419.788 312.025 420.939 312 422.17L312 430 329.29 430Z" fill="#FF3399"/><path d="M332.75 436 332.75 428.22C332.755 426.996 333.332 425.845 334.31 425.11 336.605 423.454 339.18 422.225 341.91 421.48 343.977 420.809 346.137 420.471 348.31 420.48 350.478 420.531 352.63 420.867 354.71 421.48 357.481 422.12 360.079 423.359 362.32 425.11 363.322 425.824 363.902 426.99 363.87 428.22L363.87 436Z" fill="#FF3399"/><path d="M356.09 410.58C356.09 414.877 352.607 418.36 348.31 418.36 344.013 418.36 340.53 414.877 340.53 410.58 340.53 406.283 344.013 402.8 348.31 402.8 352.607 402.8 356.09 406.283 356.09 410.58Z" fill="#FF3399"/></g></svg>