<svg width="96" height="96" xmlns="http://www.w3.org/2000/svg" xmlns:xlink="http://www.w3.org/1999/xlink" overflow="hidden"><defs><clipPath id="clip0"><rect x="303" y="179" width="96" height="96"/></clipPath></defs><g clip-path="url(#clip0)" transform="translate(-303 -179)"><path d="M382.93 213.68 346.93 222.21 346.93 252C344.922 251.6 342.842 251.777 340.93 252.51 336.59 254.09 333.93 257.71 334.93 260.6 335.93 263.49 340.34 264.6 344.68 262.99 348.6 261.57 350.84 257.99 350.84 255.77L350.84 226.92 378.84 220.31 378.84 245.41C376.789 244.997 374.662 245.177 372.71 245.93 368.27 247.56 365.53 251.29 366.61 254.28 367.69 257.27 372.16 258.37 376.61 256.75 380.37 255.4 382.87 252.61 383 250Z" fill="#FF3399"/><path d="M336.58 196.4C335.7 195.825 334.964 195.055 334.43 194.15L334.43 192.31C334.43 191.205 333.535 190.31 332.43 190.31 331.325 190.31 330.43 191.205 330.43 192.31L330.43 222.5C328.496 222.159 326.505 222.349 324.67 223.05 320.33 224.62 317.67 228.24 318.67 231.14 319.67 234.04 324.09 235.14 328.43 233.53 331.43 232.43 333.65 230.34 334.36 228.19L334.36 207.1C334.63 207.312 334.914 207.505 335.21 207.68 341.88 211.68 338.21 218 341.47 218.03 345.66 218.06 345.83 202.57 336.58 196.4Z" fill="#FF3399"/></g></svg>