<svg width="96" height="96" xmlns="http://www.w3.org/2000/svg" xmlns:xlink="http://www.w3.org/1999/xlink" overflow="hidden"><defs><clipPath id="clip0"><rect x="632" y="479" width="96" height="96"/></clipPath></defs><g clip-path="url(#clip0)" transform="translate(-632 -479)"><path d="M658.29 529C657.671 528.998 657.088 528.711 656.71 528.22 656.033 527.347 656.192 526.091 657.065 525.414 657.067 525.413 657.068 525.411 657.07 525.41 660.911 522.415 665.437 520.422 670.24 519.61 671.345 519.436 672.381 520.19 672.555 521.295 672.729 522.4 671.975 523.436 670.87 523.61 666.727 524.309 662.823 526.027 659.51 528.61 659.157 528.87 658.728 529.007 658.29 529Z" fill="#FF3399"/><path d="M647.8 547.65 647.7 547.65C646.599 547.596 645.749 546.661 645.8 545.56 646.004 541.852 647.029 538.235 648.8 534.97 649.325 533.995 650.54 533.63 651.515 534.155 652.49 534.68 652.855 535.895 652.33 536.87 650.821 539.602 649.94 542.635 649.75 545.75 649.698 546.796 648.847 547.625 647.8 547.65Z" fill="#FF3399"/><path d="M637.21 522.1C636.581 522.1 635.988 521.804 635.61 521.3 634.945 520.419 635.12 519.166 636 518.5 641.1 514.68 648.93 512.5 657.49 512.5 660.99 512.486 664.48 512.878 667.89 513.67 668.986 513.81 669.76 514.812 669.62 515.908 669.479 517.003 668.477 517.778 667.382 517.638 667.252 517.621 667.124 517.592 667 517.55 663.888 516.835 660.703 516.479 657.51 516.49 649.91 516.49 642.78 518.44 638.42 521.71 638.07 521.968 637.645 522.105 637.21 522.1Z" fill="#FF3399"/><path d="M675.7 515.16C674.97 515.151 674.294 514.775 673.9 514.16 671.629 510.816 668.802 507.887 665.54 505.5 660.13 501.5 654.02 499.05 649.21 499.04 648.023 499.04 647.06 498.077 647.06 496.89 647.06 495.703 648.023 494.74 649.21 494.74L649.21 494.74C654.99 494.74 661.88 497.41 668.1 502.05 671.769 504.738 674.946 508.04 677.49 511.81 678.136 512.813 677.847 514.149 676.844 514.796 676.5 515.018 676.1 515.137 675.69 515.14Z" fill="#FF3399"/><path d="M713.23 538.69C712.399 538.69 711.655 538.177 711.36 537.4 709.58 532.7 705.12 528.24 699.36 525.47 697.141 524.379 694.787 523.586 692.36 523.11 691.275 522.903 690.563 521.855 690.77 520.77 690.977 519.685 692.025 518.973 693.11 519.18 695.883 519.724 698.572 520.628 701.11 521.87 707.86 525.13 712.94 530.27 715.1 536 715.492 537.033 714.973 538.188 713.94 538.58 713.94 538.58 713.94 538.58 713.94 538.58 713.712 538.661 713.471 538.698 713.23 538.69Z" fill="#FF3399"/><path d="M694.71 541 694.71 541C693.605 541 692.71 540.105 692.71 539 692.575 535.86 691.282 532.882 689.08 530.64 688.176 529.626 687.14 528.738 686 528 685.048 527.44 684.731 526.214 685.291 525.262 685.851 524.31 687.077 523.992 688.029 524.553 688.07 524.577 688.111 524.603 688.15 524.63 689.573 525.548 690.867 526.651 692 527.91 694.912 530.898 696.585 534.878 696.68 539.05 696.653 540.123 695.784 540.984 694.71 541Z" fill="#FF3399"/><path d="M686.85 517.86C685.745 517.865 684.846 516.973 684.841 515.869 684.838 515.123 685.25 514.437 685.91 514.09 688.498 512.738 691.251 511.729 694.1 511.09 695.18 510.841 696.256 511.515 696.505 512.595 696.753 513.675 696.08 514.752 695 515 692.495 515.557 690.071 516.434 687.79 517.61 687.502 517.769 687.179 517.855 686.85 517.86Z" fill="#FF3399"/><path d="M722.3 518.56C721.897 518.56 721.503 518.438 721.17 518.21 718.07 516.08 712.83 514.56 707.17 514.14 706.065 514.057 705.237 513.095 705.32 511.99 705.403 510.885 706.365 510.057 707.47 510.14 713.92 510.62 719.75 512.35 723.47 514.9 724.381 515.524 724.614 516.769 723.99 517.68 723.617 518.224 723 518.55 722.34 518.55Z" fill="#FF3399"/><path d="M683.15 512.66C682.045 512.66 681.15 511.764 681.15 510.66 681.15 510.366 681.215 510.076 681.34 509.81 682.837 506.634 684.78 503.687 687.11 501.06 692.04 495.42 698.11 491.6 703.72 490.57 704.815 490.423 705.821 491.192 705.968 492.286 706.105 493.308 705.443 494.266 704.44 494.5 699.76 495.36 694.44 498.8 690.12 503.7 688.057 506.047 686.333 508.673 685 511.5 684.667 512.219 683.942 512.674 683.15 512.66Z" fill="#FF3399"/><path d="M672.7 563.28C671.696 563.29 670.841 562.554 670.7 561.56 670.069 556.297 670.092 550.977 670.77 545.72 671.358 540.053 672.735 534.496 674.86 529.21 675.302 528.197 676.482 527.733 677.495 528.175 678.508 528.617 678.972 529.797 678.53 530.81 676.559 535.735 675.287 540.912 674.75 546.19 674.108 551.104 674.085 556.08 674.68 561 674.835 562.087 674.085 563.095 673 563.26 672.901 563.278 672.8 563.285 672.7 563.28Z" fill="#FF3399"/><path d="M664.79 539.39C664.651 539.41 664.509 539.41 664.37 539.39 663.289 539.162 662.598 538.101 662.826 537.021 662.827 537.014 662.828 537.007 662.83 537 663.484 534.28 664.678 531.72 666.34 529.47 666.955 528.631 667.623 527.833 668.34 527.08 669.097 526.274 670.364 526.233 671.17 526.99 671.976 527.747 672.017 529.014 671.26 529.82 670.674 530.453 670.126 531.121 669.62 531.82 668.285 533.612 667.32 535.652 666.78 537.82 666.575 538.75 665.743 539.407 664.79 539.39Z" fill="#FF3399"/><path d="M676.75 500.55C675.772 500.566 674.926 499.872 674.75 498.91 674.368 496.524 673.669 494.2 672.67 492 672.162 491.017 672.547 489.808 673.53 489.3 674.513 488.792 675.722 489.177 676.23 490.16 677.421 492.701 678.259 495.392 678.72 498.16 678.921 499.245 678.205 500.288 677.12 500.49 677 500.525 676.875 500.545 676.75 500.55Z" fill="#FF3399"/><path d="M688.88 555C687.866 555.008 687.007 554.256 686.88 553.25 686.109 546.576 684.621 540.005 682.44 533.65 682.073 532.606 682.621 531.462 683.665 531.095 684.709 530.728 685.853 531.276 686.22 532.32 688.49 538.948 690.042 545.801 690.85 552.76 690.992 553.855 690.218 554.858 689.123 555 689.122 555 689.121 555 689.12 555Z" fill="#FF3399"/><path d="M643 528C643 529.105 642.105 530 641 530 639.895 530 639 529.105 639 528 639 526.895 639.895 526 641 526 642.105 526 643 526.895 643 528Z" fill="#FF3399"/><path d="M664 545C664 546.105 663.105 547 662 547 660.895 547 660 546.105 660 545 660 543.895 660.895 543 662 543 663.105 543 664 543.895 664 545Z" fill="#FF3399"/><path d="M705 540C705 541.105 704.105 542 703 542 701.895 542 701 541.105 701 540 701 538.895 701.895 538 703 538 704.105 538 705 538.895 705 540Z" fill="#FF3399"/><path d="M692 563C692 564.105 691.105 565 690 565 688.895 565 688 564.105 688 563 688 561.895 688.895 561 690 561 691.105 561 692 561.895 692 563Z" fill="#FF3399"/><path d="M688 494C688 495.105 687.105 496 686 496 684.895 496 684 495.105 684 494 684 492.895 684.895 492 686 492 687.105 492 688 492.895 688 494Z" fill="#FF3399"/><path d="M665 491C665 492.105 664.105 493 663 493 661.895 493 661 492.105 661 491 661 489.895 661.895 489 663 489 664.105 489 665 489.895 665 491Z" fill="#FF3399"/><path d="M703 512C703 513.105 702.105 514 701 514 699.895 514 699 513.105 699 512 699 510.895 699.895 510 701 510 702.105 510 703 510.895 703 512Z" fill="#FF3399"/><path d="M656 531C656 532.105 655.105 533 654 533 652.895 533 652 532.105 652 531 652 529.895 652.895 529 654 529 655.105 529 656 529.895 656 531Z" fill="#FF3399"/><path d="M680 504.96C680 506.065 679.105 506.96 678 506.96 676.895 506.96 676 506.065 676 504.96 676 503.855 676.895 502.96 678 502.96 679.105 502.96 680 503.855 680 504.96Z" fill="#FF3399"/><path d="M651.76 557.44C651.964 557.249 652.045 556.96 651.97 556.69 651.868 556.426 651.622 556.246 651.34 556.23L649.05 556.23C648.763 556.227 648.51 556.042 648.42 555.77L647.67 553.51C647.568 553.222 647.305 553.022 647 553 646.71 553.02 646.453 553.196 646.33 553.46L645.58 555.71C645.508 555.995 645.243 556.188 644.95 556.17L642.66 556.17C642.37 556.163 642.112 556.352 642.03 556.63 641.947 556.9 642.029 557.193 642.24 557.38L643.03 558.09 644 559C644.089 559.099 644.157 559.214 644.2 559.34 644.249 559.458 644.249 559.592 644.2 559.71L643.49 562.09C643.396 562.37 643.503 562.678 643.75 562.84 643.986 563.009 644.304 563.009 644.54 562.84L646.54 561.42C646.783 561.261 647.097 561.261 647.34 561.42L649.34 562.84C649.576 563.009 649.894 563.009 650.13 562.84 650.37 562.673 650.472 562.368 650.38 562.09L649.67 559.71C649.588 559.453 649.671 559.171 649.88 559L651.72 557.42Z" fill="#FF3399"/><path d="M643.76 503.44C643.964 503.249 644.045 502.96 643.97 502.69 643.868 502.426 643.622 502.246 643.34 502.23L641.05 502.23C640.763 502.227 640.51 502.042 640.42 501.77L639.67 499.51C639.568 499.222 639.305 499.022 639 499 638.71 499.02 638.453 499.196 638.33 499.46L637.58 501.71C637.508 501.995 637.243 502.189 636.95 502.17L634.66 502.17C634.37 502.163 634.112 502.352 634.03 502.63 633.947 502.9 634.029 503.193 634.24 503.38L635 504.1 636 505C636.089 505.099 636.157 505.215 636.2 505.34 636.249 505.458 636.249 505.592 636.2 505.71L635.49 508.09C635.396 508.37 635.503 508.678 635.75 508.84 635.986 509.009 636.304 509.009 636.54 508.84L638.54 507.42C638.783 507.261 639.097 507.261 639.34 507.42L641.34 508.84C641.576 509.009 641.894 509.009 642.13 508.84 642.37 508.673 642.472 508.368 642.38 508.09L641.67 505.71C641.597 505.444 641.697 505.161 641.92 505L643.76 503.42Z" fill="#FF3399"/><path d="M712.76 549.34C712.964 549.149 713.046 548.86 712.97 548.59 712.868 548.326 712.622 548.146 712.34 548.13L710.05 548.13C709.763 548.127 709.51 547.942 709.42 547.67L708.67 545.41C708.565 545.126 708.302 544.93 708 544.91 707.71 544.93 707.453 545.106 707.33 545.37L706.58 547.63C706.501 547.909 706.239 548.096 705.95 548.08L703.66 548.08C703.37 548.073 703.112 548.262 703.03 548.54 702.947 548.81 703.029 549.103 703.24 549.29L704 550 705 550.92C705.089 551.019 705.157 551.135 705.2 551.26 705.249 551.378 705.249 551.512 705.2 551.63L704.53 554C704.436 554.28 704.543 554.588 704.79 554.75 705.026 554.919 705.344 554.919 705.58 554.75L707.58 553.33C707.823 553.171 708.137 553.171 708.38 553.33L710.38 554.75C710.616 554.919 710.934 554.919 711.17 554.75 711.41 554.583 711.512 554.278 711.42 554L710.71 551.62C710.628 551.363 710.711 551.081 710.92 550.91L712.76 549.33Z" fill="#FF3399"/><path d="M718.76 500.44C718.964 500.249 719.046 499.96 718.97 499.69 718.868 499.426 718.622 499.246 718.34 499.23L716.05 499.23C715.763 499.227 715.51 499.042 715.42 498.77L714.67 496.51C714.568 496.222 714.305 496.022 714 496 713.71 496.02 713.453 496.196 713.33 496.46L712.58 498.72C712.501 498.999 712.239 499.186 711.95 499.17L709.66 499.17C709.37 499.163 709.112 499.352 709.03 499.63 708.947 499.9 709.029 500.193 709.24 500.38L710.03 501.09 711 502C711.089 502.099 711.157 502.215 711.2 502.34 711.249 502.458 711.249 502.592 711.2 502.71L710.49 505.09C710.396 505.37 710.503 505.678 710.75 505.84 710.986 506.009 711.304 506.009 711.54 505.84L713.54 504.42C713.783 504.261 714.097 504.261 714.34 504.42L716.34 505.84C716.576 506.009 716.894 506.009 717.13 505.84 717.37 505.673 717.472 505.368 717.38 505.09L716.67 502.71C716.588 502.453 716.671 502.171 716.88 502L718.72 500.42Z" fill="#FF3399"/><path d="M726 531C726 532.105 725.105 533 724 533 722.895 533 722 532.105 722 531 722 529.895 722.895 529 724 529 725.105 529 726 529.895 726 531Z" fill="#FF3399"/></g></svg>