<svg width="96" height="96" xmlns="http://www.w3.org/2000/svg" xmlns:xlink="http://www.w3.org/1999/xlink" overflow="hidden"><defs><clipPath id="clip0"><rect x="592" y="312" width="96" height="96"/></clipPath></defs><g clip-path="url(#clip0)" transform="translate(-592 -312)"><path d="M673.5 389.8 649.7 348.2C649.3 347.4 649 346.6 649 345.7 649 345.3 649.1 344.8 649.2 344.4L652.3 332.9C652.4 332.4 652.9 332.1 653.4 332.2L661.7 333C662 333 662.2 332.9 662.2 332.6L664 324.5C664.1 324.3 663.9 324 663.7 323.9L656 321.1C654 320.4 651.9 320 649.8 320L649 320C648.4 320 648 320.4 648 321L648 322C648 326.4 644.4 330 640 330 635.6 330 632 326.4 632 322L632 321C632 320.4 631.6 320 631 320L630.2 320C628.1 320 626 320.4 624 321.1L616.4 323.9C616.2 324 616 324.2 616.1 324.5L617.9 332.6C618 332.8 618.2 333 618.4 333L626.7 332.2C627.2 332.2 627.6 332.5 627.8 332.9L630.9 344.4C631 344.8 631.1 345.3 631.1 345.7 631.1 346.6 630.9 347.4 630.4 348.2L606.5 389.8C606 390.7 606.2 391.8 607.1 392.4 613.3 396.9 625.7 400 640 400 654.3 400 666.7 396.9 672.9 392.4 673.7 391.8 674 390.7 673.5 389.8Z" fill="#FF3399"/></g></svg>